:SAMPLES-PER-SECOND 30
:FULLY-SPECIFIED
:DEGREES
635
root  6.98424 38.6866 28.9496 176.505 -8.78293 176.595
RightUpLeg  -11.0604 -6.17592 -7.58408
RightLeg  27.0506 2.86942 1.35912
RightFoot  -10.3103 -0.0753454 0.602264
RightToes  -6.98493e-010 0 -3.6325e-017
Spine  14.0933 -3.33133 10.6864
Spine1  8.84279 -0.8923 -5.41646
HEad  -11.2285 -9.69075 -8.65011
LeftShoulder1  0.16746 2.99744 -26.8189
LeftArm  -17.0987 5.18768 -37.6873
LeftForeArm  62.2951 -78.9446 -79.8816
LeftHand  -0.0679512 1.33507 1.76833
RightShoulder  -0.247355 -4.31752 23.0829
RightArm  -9.74386 -2.44005 37.9608
RightForeArm  100.273 75.0518 130.766
RightHand  -0.187235 0.951164 -3.53839
LeftUpLeg  -15.6812 15.1331 -0.430147
LeftLeg  31.1004 -2.19286 -1.07392
LeftFoot  -12.8799 -0.0342447 -8.23774
LeftToes  7.91257e-010 -1.64976e-010 -3.02228e-011
636
root  6.45681 38.7346 28.8774 176.432 -10.4784 175.979
RightUpLeg  -9.96687 -6.77012 -9.37967
RightLeg  26.5745 2.39875 1.0719
RightFoot  -10.4314 -0.0841405 1.67912
RightToes  -6.98493e-010 0 -3.6325e-017
Spine  13.7365 -3.67587 10.032
Spine1  8.9423 -1.51983 -4.78304
HEad  -9.94706 -8.58039 -7.8388
LeftShoulder1  0.254895 2.73711 -27.0792
LeftArm  -16.6623 4.65712 -38.2973
LeftForeArm  56.3372 -78.6781 -73.82
LeftHand  -0.071736 1.46429 1.92781
RightShoulder  -0.219561 -4.22833 22.885
RightArm  -10.245 -2.40691 37.9728
RightForeArm  99.478 75.3202 129.583
RightHand  -0.170152 0.662551 -3.35131
LeftUpLeg  -16.1526 13.7462 0.319356
LeftLeg  31.8139 -0.796259 -0.188644
LeftFoot  -12.9799 -0.023597 -7.06835
LeftToes  7.91257e-010 -1.64976e-010 -3.02228e-011
637
root  5.89946 38.7992 28.7939 176.635 -11.1946 175.523
RightUpLeg  -9.19509 -6.98287 -10.9064
RightLeg  25.7345 2.38168 1.02131
RightFoot  -10.1836 -0.0954269 2.56296
RightToes  -6.98493e-010 0 -3.6325e-017
Spine  13.5705 -3.72498 9.62439
Spine1  8.48764 -1.68632 -4.61913
HEad  -8.54895 -7.78856 -8.10866
LeftShoulder1  0.24527 2.76522 -27.0403
LeftArm  -16.3379 4.34852 -38.8488
LeftForeArm  50.676 -78.2997 -68.3552
LeftHand  -0.056963 1.02646 1.37938
RightShoulder  -0.229576 -4.25455 23.1965
RightArm  -10.3919 -2.80237 37.7474
RightForeArm  99.5781 75.3423 129.513
RightHand  -0.161192 0.311127 -3.33354
LeftUpLeg  -16.3541 12.9303 1.87414
LeftLeg  30.8677 -0.918163 -0.241483
LeftFoot  -12.9299 -0.0148475 -6.65515
LeftToes  7.91257e-010 -1.64976e-010 -3.02228e-011
638
root  5.30616 38.9014 28.7317 176.651 -11.2682 175.171
RightUpLeg  -8.11437 -6.65563 -12.2867
RightLeg  24.2307 2.4331 0.969229
RightFoot  -9.59735 -0.119193 3.55218
RightToes  -6.98493e-010 0 -3.6325e-017
Spine  13.4945 -3.64497 9.31081
Spine1  8.64809 -1.57743 -4.86925
HEad  -8.3968 -6.74972 -8.24796
LeftShoulder1  0.216837 2.85381 -27.189
LeftArm  -16.1827 3.50083 -38.9901
LeftForeArm  47.1442 -77.9914 -64.8093
LeftHand  -0.0504792 1.22359 1.24909
RightShoulder  -0.280254 -4.42504 23.2195
RightArm  -10.663 -2.59084 38.0056
RightForeArm  99.3551 75.5175 128.765
RightHand  -0.142681 0.445238 -2.9019
LeftUpLeg  -15.7529 12.4224 3.97034
LeftLeg  28.4256 -1.77885 -0.704318
LeftFoot  -12.5395 0.00209422 -6.97363
LeftToes  7.91257e-010 -1.64976e-010 -3.02228e-011
639
root  4.66279 38.9441 28.649 176.539 -11.5093 174.771
RightUpLeg  -6.9701 -6.91142 -13.9191
RightLeg  23.1381 2.87744 1.12669
RightFoot  -9.32497 -0.144146 4.60106
RightToes  -6.98493e-010 0 -3.6325e-017
Spine  13.4161 -3.7484 8.61884
Spine1  8.96992 -1.68257 -5.12851
HEad  -8.40953 -5.20917 -8.04841
LeftShoulder1  0.211273 2.8621 -26.754
LeftArm  -16.0459 3.19759 -39.1192
LeftForeArm  47.7181 -78.0296 -65.0711
LeftHand  -0.0617396 1.72944 1.68481
RightShoulder  -0.286872 -4.43945 23.4759
RightArm  -10.7568 -2.42346 38.2911
RightForeArm  98.2522 75.6802 127.865
RightHand  -0.172838 0.82245 -3.32168
LeftUpLeg  -14.9384 11.4674 6.23134
LeftLeg  25.7569 -2.30949 -0.875647
LeftFoot  -12.2945 0.0140623 -7.15749
LeftToes  7.91257e-010 -1.64976e-010 -3.02228e-011
640
root  3.97815 38.8973 28.5752 176.659 -11.4883 174.578
RightUpLeg  -6.57719 -6.31525 -15.2238
RightLeg  22.7656 2.71086 1.02749
RightFoot  -9.3304 -0.163959 5.72665
RightToes  -6.98493e-010 0 -3.6325e-017
Spine  13.373 -3.58981 7.68888
Spine1  8.75507 -1.72788 -4.73079
HEad  -8.09582 -3.66333 -8.09641
LeftShoulder1  0.154936 3.03948 -27.1736
LeftArm  -15.6766 2.61944 -38.5914
LeftForeArm  47.1371 -77.9755 -64.544
LeftHand  -0.0568916 1.85725 1.56392
RightShoulder  -0.244373 -4.30386 23.2183
RightArm  -10.6437 -2.50439 38.3818
RightForeArm  96.9804 75.8011 127.082
RightHand  -0.19959 0.955675 -3.75559
LeftUpLeg  -14.5363 11.213 8.74987
LeftLeg  23.2395 -2.44212 -0.832005
LeftFoot  -12.0497 0.0288405 -6.97335
LeftToes  7.91257e-010 -1.64976e-010 -3.02228e-011
641
root  3.21 38.8316 28.4793 176.576 -11.4691 174.187
RightUpLeg  -5.89172 -5.40089 -16.8777
RightLeg  22.4093 2.39405 0.865401
RightFoot  -9.36116 -0.18138 6.80131
RightToes  -6.98493e-010 0 -3.6325e-017
Spine  13.0848 -3.53895 6.86494
Spine1  9.01354 -1.68161 -5.15378
HEad  -8.48507 2.15926 -9.65026
LeftShoulder1  0.167569 3.00213 -27.2318
LeftArm  -15.7058 2.12903 -38.2704
LeftForeArm  45.1343 -77.8001 -63.0432
LeftHand  -0.0786121 1.31032 2.08466
RightShoulder  -0.220983 -4.2285 23.0703
RightArm  -10.9723 -2.40185 38.9
RightForeArm  96.9402 75.9004 126.635
RightHand  -0.159332 0.473385 -3.2258
LeftUpLeg  -13.2827 9.29993 10.9704
LeftLeg  19.5802 -1.00333 -0.0891403
LeftFoot  -10.9519 0.0857431 -6.24936
LeftToes  7.91257e-010 -1.64976e-010 -3.02228e-011
642
root  2.34553 38.7077 28.3745 176.743 -11.5834 174.277
RightUpLeg  -5.5316 -4.78897 -18.1729
RightLeg  22.1795 2.1718 0.755921
RightFoot  -9.35381 -0.199462 7.81433
RightToes  -6.98493e-010 0 -3.6325e-017
Spine  12.3191 -3.64859 6.5905
Spine1  9.29965 -1.71991 -5.80968
HEad  -11.0462 18.2977 -14.5962
LeftShoulder1  0.183905 2.9463 -26.794
LeftArm  -15.8634 2.08849 -38.5092
LeftForeArm  45.1866 -77.8065 -63.1218
LeftHand  -0.0995684 1.699 2.88828
RightShoulder  -0.230259 -4.25627 23.2156
RightArm  -10.9446 -1.89005 39.3335
RightForeArm  95.8651 76.0828 125.572
RightHand  -0.158359 0.492405 -3.19448
LeftUpLeg  -12.5436 6.80544 13.2503
LeftLeg  16.2274 -0.0643371 0.460662
LeftFoot  -9.7043 0.132688 -5.16845
LeftToes  7.91257e-010 -1.64976e-010 -3.02228e-011
643
root  1.43736 38.5481 28.2895 176.169 -11.5252 174.539
RightUpLeg  -4.41448 -3.92691 -19.4194
RightLeg  21.7559 2.10335 0.708456
RightFoot  -9.35924 -0.219536 8.99618
RightToes  -6.98493e-010 0 -3.6325e-017
Spine  12.6004 -3.55975 5.82317
Spine1  9.34396 -1.71213 -5.82116
HEad  -10.726 19.1458 -14.5224
LeftShoulder1  0.209944 2.87015 -26.9509
LeftArm  -15.8525 1.62484 -38.3571
LeftForeArm  44.327 -77.6939 -61.9373
LeftHand  -0.0892995 1.38636 2.41439
RightShoulder  -0.21995 -4.22571 23.0404
RightArm  -11.2525 -1.76502 39.8472
RightForeArm  95.53 76.2321 124.795
RightHand  -0.143296 0.460302 -2.90726
LeftUpLeg  -10.9013 5.68122 15.0484
LeftLeg  12.9034 -0.503601 1.31018
LeftFoot  -8.74509 0.157269 -4.62429
LeftToes  7.91257e-010 -1.64976e-010 -3.02228e-011
644
root  0.443582 38.3041 28.1982 176.243 -11.1342 175.359
RightUpLeg  -4.30483 -3.09687 -20.094
RightLeg  21.5405 2.07107 0.686666
RightFoot  -9.41552 -0.239182 10.3895
RightToes  -6.98493e-010 0 -3.6325e-017
Spine  12.0407 -3.1685 5.46881
Spine1  9.44054 -1.42714 -5.75244
HEad  -10.3236 20.3802 -14.7661
LeftShoulder1  0.212803 2.86081 -26.9199
LeftArm  -15.589 1.42639 -38.2358
LeftForeArm  44.512 -77.7045 -61.9686
LeftHand  -0.0487058 0.984042 1.15046
RightShoulder  -0.220602 -4.22816 23.0269
RightArm  -11.943 -2.0096 39.8801
RightForeArm  96.7421 76.0836 125.762
RightHand  -0.128017 0.266522 -2.6732
LeftUpLeg  -10.5187 6.57898 16.7116
LeftLeg  11.5372 -0.347865 2.30182
LeftFoot  -8.26907 0.154786 -3.91504
LeftToes  7.91257e-010 -1.64976e-010 -3.02228e-011
645
root  -0.730457 37.993 28.1116 176.249 -10.8808 176.146
RightUpLeg  -3.96939 -2.36502 -21.1734
RightLeg  21.2154 2.17298 0.715549
RightFoot  -9.31897 -0.273855 11.869
RightToes  -6.98493e-010 0 -3.6325e-017
Spine  11.5887 -3.11916 5.40623
Spine1  9.56202 -1.29519 -6.26843
HEad  -10.2529 21.2051 -14.6002
LeftShoulder1  0.202606 2.87973 -26.2681
LeftArm  -15.2858 1.32501 -38.3971
LeftForeArm  46.1776 -77.8746 -63.4902
LeftHand  -0.0591139 0.879851 1.41645
RightShoulder  -0.232573 -4.2635 23.2384
RightArm  -12.3217 -2.21179 39.8834
RightForeArm  97.9789 75.9354 126.703
RightHand  -0.117474 0.212336 -2.47185
LeftUpLeg  -10.4808 8.47045 18.0353
LeftLeg  12.2623 1.61049 2.34527
LeftFoot  -7.59382 0.172048 -4.04783
LeftToes  7.91257e-010 -1.64976e-010 -3.02228e-011
646
root  -2.0239 37.6706 28.0598 176.337 -11.0948 176.784
RightUpLeg  -3.10688 -2.46103 -22.77
RightLeg  20.0483 2.63519 0.857592
RightFoot  -8.90097 -0.355186 13.7437
RightToes  -6.98493e-010 0 -3.6325e-017
Spine  11.4516 -3.01501 4.65396
Spine1  9.3682 -1.41525 -5.9667
HEad  -10.6543 21.6268 -13.8932
LeftShoulder1  0.154323 3.02814 -26.2291
LeftArm  -14.7995 0.93907 -38.5629
LeftForeArm  47.6612 -78.0269 -65.067
LeftHand  -0.0590227 1.37796 1.5099
RightShoulder  -0.219207 -4.22122 23.1229
RightArm  -13.186 -2.96682 39.668
RightForeArm  99.6504 75.7059 128.045
RightHand  -0.104338 0.0414628 -2.2518
LeftUpLeg  -11.0776 9.5052 18.5005
LeftLeg  14.6681 4.73075 2.44692
LeftFoot  -6.43039 0.34329 -6.43774
LeftToes  7.91257e-010 -1.64976e-010 -3.02228e-011
647
root  -3.38857 37.3176 28.0896 176.211 -11.3147 177.347
RightUpLeg  -2.09474 -1.72612 -24.4256
RightLeg  18.703 2.27724 0.670909
RightFoot  -7.9957 -0.518147 15.7378
RightToes  -6.98493e-010 0 -3.6325e-017
Spine  12.2052 -2.73501 3.09735
Spine1  9.02033 -1.61305 -4.72378
HEad  -11.3911 21.2308 -13.1733
LeftShoulder1  0.139494 3.06597 -25.6267
LeftArm  -14.3356 0.233268 -39.5236
LeftForeArm  47.7276 -78.0597 -65.7076
LeftHand  -0.0803285 1.3255 2.12634
RightShoulder  -0.208072 -4.18039 23.2419
RightArm  -14.2918 -3.80628 39.1844
RightForeArm  101.139 75.2175 130.303
RightHand  -0.1115 -0.0592661 -2.43287
LeftUpLeg  -12.5633 12.1247 18.2757
LeftLeg  18.0195 3.11037 1.46416
LeftFoot  -2.48171 1.01831 -13.1187
LeftToes  7.91257e-010 -1.64976e-010 -3.02228e-011
